<svg xmlns="http://www.w3.org/2000/svg" width="800px" height="800px" viewBox="0 0 24 24" fill="none">
<path opacity="0.4" d="M21.25 6.5V17.5C21.25 18.74 20.24 19.75 19 19.75H17.75V21.25C17.75 21.66 17.41 22 17 22H15.75C15.34 22 15 21.66 15 21.25V19.75H9V21.25C9 21.66 8.66 22 8.25 22H7C6.59 22 6.25 21.66 6.25 21.25V19.75H5C3.76 19.75 2.75 18.74 2.75 17.5V6.5C2.75 5.26 3.76 4.25 5 4.25H19C20.24 4.25 21.25 5.26 21.25 6.5Z" fill="#292D32"/>
<path d="M11.9999 12C9.66992 12 7.76992 10.1 7.76992 7.77V6.73C7.76992 4.4 9.66992 2.5 11.9999 2.5C14.3299 2.5 16.2299 4.4 16.2299 6.73V7.77C16.2299 10.1 14.3299 12 11.9999 12Z" fill="#292D32"/>
</svg>